<svg width="120" height="120" viewBox="0 0 120 120" fill="none" xmlns="http://www.w3.org/2000/svg">
<path d="M60 7.5C31.0078 7.5 7.5 31.0078 7.5 60C7.5 88.9922 31.0078 112.5 60 112.5C88.9922 112.5 112.5 88.9922 112.5 60C112.5 31.0078 88.9922 7.5 60 7.5ZM82.5 62.8125C82.5 63.3281 82.0781 63.75 81.5625 63.75H63.75V81.5625C63.75 82.0781 63.3281 82.5 62.8125 82.5H57.1875C56.6719 82.5 56.25 82.0781 56.25 81.5625V63.75H38.4375C37.9219 63.75 37.5 63.3281 37.5 62.8125V57.1875C37.5 56.6719 37.9219 56.25 38.4375 56.25H56.25V38.4375C56.25 37.9219 56.6719 37.5 57.1875 37.5H62.8125C63.3281 37.5 63.75 37.9219 63.75 38.4375V56.25H81.5625C82.0781 56.25 82.5 56.6719 82.5 57.1875V62.8125Z" fill="white"/>
</svg>
